<mxfile host="app.diagrams.net" modified="2023-06-17T00:28:00.414Z" agent="Mozilla/5.0 (Windows NT 10.0; Win64; x64; rv:109.0) Gecko/20100101 Firefox/115.0" version="21.3.2" etag="_yGc2v-4st_mUw-UpVvY" type="github">
  <diagram name="Page-1" id="GErWIBbK15fjfVVPHwcR">
    <mxGraphModel>
      <root>
        <mxCell id="0" />
        <mxCell id="1" parent="0" />
      </root>
    </mxGraphModel>
  </diagram>
</mxfile>
